<?xml version="1.0" standalone="no"?><!DOCTYPE svg PUBLIC "-//W3C//DTD SVG 1.1//EN" "http://www.w3.org/Graphics/SVG/1.1/DTD/svg11.dtd"><svg t="1566008942751" class="icon" viewBox="0 0 1024 1024" version="1.1" xmlns="http://www.w3.org/2000/svg" p-id="2239" xmlns:xlink="http://www.w3.org/1999/xlink" width="200" height="200"><defs><style type="text/css"></style></defs><path d="M 711.974 335.603 c 5.19424 0 10.2899 0.09728 15.3882 0.34176 C 700.407 189.171 548.796 76.8 365.806 76.8 C 163.756 76.8 0 213.773 0 382.747 C 0 481.811 56.2842 569.902 143.587 625.792 c 1.12896 0.7104 3.35744 2.10816 3.35744 2.10816 l -35.3562 110.73 l 132.243 -67.36 c 0 0 4.13952 1.19936 6.22208 1.78944 c 36.3622 10.1197 75.2986 15.6096 115.753 15.6096 c 8.25728 0 16.4416 -0.31872 24.5773 -0.76032 c -7.49696 -23.255 -11.6147 -47.7338 -11.6147 -72.9958 C 378.769 460.664 527.994 335.603 711.974 335.603 Z M 493.1 227.64 c 28.375 0 51.3344 22.249 51.3344 49.7434 c 0 27.4419 -22.9581 49.7408 -51.3344 49.7408 c -28.3981 0 -51.3562 -22.2989 -51.3562 -49.7408 C 441.742 249.889 464.701 227.64 493.1 227.64 Z M 238.511 327.124 c -28.3725 0 -51.3562 -22.2989 -51.3562 -49.7408 c 0 -27.4944 22.9837 -49.7434 51.3562 -49.7434 c 28.4006 0 51.4099 22.249 51.4099 49.7434 C 289.921 304.826 266.912 327.124 238.511 327.124 Z" p-id="2240"></path><path d="M 405.674 616.727 c 0 142.753 138.392 258.482 309.093 258.482 c 34.1568 0 67.0413 -4.65408 97.7677 -13.2301 c 1.76384 -0.4672 5.24416 -1.52064 5.24416 -1.52064 l 111.684 56.9472 l -29.8432 -93.5552 c 0 0 1.91232 -1.19936 2.84288 -1.78688 c 73.705 -47.2192 121.29 -121.609 121.29 -205.336 c 0 -142.732 -138.345 -258.435 -308.986 -258.435 C 544.067 358.292 405.674 473.996 405.674 616.727 Z M 778.867 527.706 c 0 -23.1795 19.4061 -41.9725 43.3702 -41.9725 c 24.0128 0 43.4202 18.793 43.4202 41.9725 c 0 23.2294 -19.4086 42.048 -43.4202 42.048 C 798.273 569.754 778.867 550.935 778.867 527.706 Z M 563.791 527.706 c 0 -23.1795 19.4304 -41.9725 43.3946 -41.9725 c 23.9898 0 43.4202 18.793 43.4202 41.9725 c 0 23.2294 -19.4304 42.048 -43.4202 42.048 C 583.222 569.754 563.791 550.935 563.791 527.706 Z" p-id="2241"></path></svg>